<svg width="150" height="30" viewBox="0 0 150 30" fill="none" xmlns="http://www.w3.org/2000/svg">
<path d="M15 0C6.72896 0 0 6.72896 0 15C0 23.2708 6.72896 30 15 30C23.2708 30 30 23.2709 30 15C30 6.72896 23.2708 0 15 0ZM27.2522 20.5169C27.1609 20.5275 27.0696 20.5531 26.9836 20.5983C26.9489 20.6167 25.8811 21.1615 24.0821 21.7546C24.574 19.6691 24.7893 17.6633 24.8237 15.7792H28.4173C28.3205 17.4594 27.9128 19.0566 27.2522 20.5169ZM20.4717 27.2727C19.0254 27.9202 17.4458 28.3205 15.7853 28.4172V24.8596C18.0248 24.7829 20.0516 24.4616 21.7742 24.0573C21.4339 25.0378 21.0313 26.0278 20.5428 27.0224C20.5033 27.1038 20.4821 27.1884 20.4717 27.2727ZM9.40761 27.0041C9.38974 26.9692 8.84885 25.9095 8.25818 24.123C10.3399 24.6154 12.3453 24.8365 14.2267 24.8719V28.4179C12.5452 28.3221 10.947 27.9143 9.48549 27.2537C9.47304 27.1685 9.44968 27.0842 9.40761 27.0041ZM2.74797 20.5177C2.08749 19.0574 1.6792 17.4594 1.58297 15.7792H5.14634C5.22151 18.0409 5.54719 20.0828 5.95604 21.8171C4.978 21.4773 3.99121 21.0758 2.99843 20.5888C2.91701 20.5489 2.83287 20.5276 2.74797 20.5177ZM2.72218 9.53917C2.82251 9.53103 2.9225 9.50266 3.01727 9.45315C3.05155 9.43466 4.10148 8.8994 5.87212 8.31193C5.38797 10.3726 5.17367 12.356 5.13709 14.2204H1.58262C1.67809 12.5622 2.07706 10.9842 2.72218 9.53917ZM9.49202 2.74359C10.9515 2.0852 12.5478 1.67809 14.2267 1.58255V5.19237C11.9597 5.269 9.9136 5.59719 8.17801 6.00777C8.5201 5.01931 8.92492 4.02166 9.41721 3.01873C9.46101 2.92987 9.48389 2.83642 9.49202 2.74359ZM20.5528 3.03737C20.5707 3.07199 21.1112 4.13145 21.7017 5.91703C19.6379 5.43267 17.652 5.21886 15.7852 5.18285V1.58331C17.4434 1.67955 19.0208 2.07887 20.4658 2.72496C20.4729 2.83093 20.5003 2.93731 20.5528 3.03737ZM15.7853 6.77916C17.8089 6.81435 19.9782 7.07293 22.2222 7.67216C22.6982 9.47144 23.1137 11.7054 23.2108 14.2208H15.7853V6.77916ZM14.2267 6.79404V14.2208H6.73411C6.77026 12.1987 7.02969 10.0313 7.62933 7.78911C9.43883 7.309 11.6903 6.88986 14.2267 6.79404ZM6.74836 15.7792H14.2267V23.2717C12.1873 23.2373 10.0006 22.9771 7.73759 22.3687C7.25921 20.5596 6.84237 18.3113 6.74836 15.7792ZM15.7853 23.2564V15.7792H23.2267C23.1932 17.8202 22.9329 20.0087 22.3253 22.274C20.5263 22.7488 18.2958 23.1613 15.7853 23.2564ZM24.8133 14.2208C24.7357 11.9735 24.41 9.9444 24.0036 8.22C24.9952 8.5628 25.9966 8.96879 27.0034 9.46289C27.0917 9.50607 27.1837 9.52644 27.2762 9.53499C27.9226 10.9816 28.3221 12.5607 28.418 14.2208H24.8133ZM26.0194 7.31644C25.1802 6.9685 24.3478 6.67055 23.5244 6.41683C23.2329 5.4445 22.9358 4.62513 22.6762 3.97494C23.9773 4.88379 25.11 6.01591 26.0194 7.31644ZM7.26394 4.01805C6.92045 4.84902 6.62494 5.67312 6.37358 6.48852C5.42301 6.77423 4.6188 7.06508 3.97765 7.32082C4.87315 6.03892 5.9865 4.92036 7.26394 4.01805ZM4.03877 22.7655C4.8452 23.0977 5.64551 23.3841 6.4372 23.6292C6.71297 24.5509 6.99513 25.3362 7.24489 25.9684C6.00444 25.0887 4.9196 24.0052 4.03877 22.7655ZM22.7033 26.005C23.0403 25.1885 23.3309 24.3788 23.5791 23.5775C24.5219 23.2955 25.3275 23.0068 25.9704 22.7527C25.076 24.0152 23.9702 25.1161 22.7033 26.005Z" fill="#066FD5"/>
<path d="M50.39 22.734C49.467 22.734 48.6285 22.5585 47.8745 22.2075C47.1205 21.8565 46.4835 21.3885 45.9635 20.8035C45.4435 20.2055 45.073 19.549 44.852 18.834L46.256 18.3075C46.594 19.2955 47.1205 20.0495 47.8355 20.5695C48.5505 21.0765 49.402 21.33 50.39 21.33C51.014 21.33 51.56 21.2325 52.028 21.0375C52.509 20.8295 52.8795 20.5435 53.1395 20.1795C53.3995 19.8155 53.5295 19.393 53.5295 18.912C53.5295 18.197 53.3345 17.6445 52.9445 17.2545C52.5545 16.8645 51.9955 16.5655 51.2675 16.3575L48.6545 15.5775C47.6275 15.2785 46.8345 14.778 46.2755 14.076C45.7295 13.374 45.4565 12.5745 45.4565 11.6775C45.4565 10.9105 45.645 10.2345 46.022 9.6495C46.399 9.0515 46.9125 8.5835 47.5625 8.2455C48.2255 7.9075 48.973 7.7385 49.805 7.7385C50.676 7.7385 51.456 7.901 52.145 8.226C52.847 8.538 53.4385 8.954 53.9195 9.474C54.4005 9.994 54.745 10.5725 54.953 11.2095L53.588 11.7555C53.276 10.8975 52.7885 10.2475 52.1255 9.8055C51.4755 9.3635 50.7085 9.1425 49.8245 9.1425C49.2655 9.1425 48.7715 9.24 48.3425 9.435C47.9265 9.63 47.6015 9.9095 47.3675 10.2735C47.1335 10.6375 47.0165 11.0665 47.0165 11.5605C47.0165 12.1585 47.205 12.698 47.582 13.179C47.959 13.647 48.5375 13.998 49.3175 14.232L51.6185 14.9145C52.7625 15.2525 53.627 15.74 54.212 16.377C54.797 17.014 55.0895 17.8135 55.0895 18.7755C55.0895 19.5555 54.888 20.2445 54.485 20.8425C54.095 21.4275 53.5425 21.889 52.8275 22.227C52.1255 22.565 51.313 22.734 50.39 22.734ZM56.6005 22.5L61.9045 7.9725H63.5815L68.8855 22.5H67.2475L65.9995 18.951H59.506L58.2385 22.5H56.6005ZM60.013 17.4885H65.4535L62.509 9.1425H62.977L60.013 17.4885ZM70.8227 22.5V7.9725H72.3827V21.0375H78.8177V22.5H70.8227ZM81.1821 22.5V7.9725H90.5421V9.435H82.7421V14.4855H90.1521V15.948H82.7421V21.0375H90.5421V22.5H81.1821ZM98.0165 22.734C97.0935 22.734 96.255 22.5585 95.501 22.2075C94.747 21.8565 94.11 21.3885 93.59 20.8035C93.07 20.2055 92.6995 19.549 92.4785 18.834L93.8825 18.3075C94.2205 19.2955 94.747 20.0495 95.462 20.5695C96.177 21.0765 97.0285 21.33 98.0165 21.33C98.6405 21.33 99.1865 21.2325 99.6545 21.0375C100.136 20.8295 100.506 20.5435 100.766 20.1795C101.026 19.8155 101.156 19.393 101.156 18.912C101.156 18.197 100.961 17.6445 100.571 17.2545C100.181 16.8645 99.622 16.5655 98.894 16.3575L96.281 15.5775C95.254 15.2785 94.461 14.778 93.902 14.076C93.356 13.374 93.083 12.5745 93.083 11.6775C93.083 10.9105 93.2715 10.2345 93.6485 9.6495C94.0255 9.0515 94.539 8.5835 95.189 8.2455C95.852 7.9075 96.5995 7.7385 97.4315 7.7385C98.3025 7.7385 99.0825 7.901 99.7715 8.226C100.474 8.538 101.065 8.954 101.546 9.474C102.027 9.994 102.372 10.5725 102.58 11.2095L101.215 11.7555C100.903 10.8975 100.415 10.2475 99.752 9.8055C99.102 9.3635 98.335 9.1425 97.451 9.1425C96.892 9.1425 96.398 9.24 95.969 9.435C95.553 9.63 95.228 9.9095 94.994 10.2735C94.76 10.6375 94.643 11.0665 94.643 11.5605C94.643 12.1585 94.8315 12.698 95.2085 13.179C95.5855 13.647 96.164 13.998 96.944 14.232L99.245 14.9145C100.389 15.2525 101.254 15.74 101.839 16.377C102.424 17.014 102.716 17.8135 102.716 18.7755C102.716 19.5555 102.515 20.2445 102.112 20.8425C101.722 21.4275 101.169 21.889 100.454 22.227C99.752 22.565 98.9395 22.734 98.0165 22.734ZM106.021 22.5V20.355H107.581V22.5H106.021ZM110.996 22.5V7.9725H115.735C117.269 7.9725 118.601 8.2845 119.732 8.9085C120.876 9.5195 121.76 10.371 122.384 11.463C123.008 12.542 123.32 13.7965 123.32 15.2265C123.32 16.6435 123.008 17.9045 122.384 19.0095C121.76 20.1015 120.876 20.9595 119.732 21.5835C118.601 22.1945 117.269 22.5 115.735 22.5H110.996ZM113.648 20.16H115.793C116.781 20.16 117.633 19.9585 118.348 19.5555C119.076 19.1395 119.641 18.5675 120.044 17.8395C120.447 17.0985 120.649 16.2275 120.649 15.2265C120.649 14.2125 120.447 13.3415 120.044 12.6135C119.641 11.8855 119.076 11.32 118.348 10.917C117.633 10.514 116.781 10.3125 115.793 10.3125H113.648V20.16ZM125.431 22.5V7.9725H135.083V10.3125H128.083V14.037H134.693V16.377H128.083V20.16H135.083V22.5H125.431ZM140.908 22.5L135.838 7.9725H138.724L142.702 20.004H142.137L146.115 7.9725H149.001L143.95 22.5H140.908Z" fill="#F0EDE6"/>
</svg>
