<svg width="28" height="30" viewBox="0 0 28 30" fill="none" xmlns="http://www.w3.org/2000/svg">
<path d="M11.9052 24.9218V26.9776C11.9052 27.5391 12.2179 28 12.6027 28H15.394C15.7815 28 16.0928 27.5377 16.0928 26.9776V24.9218M23.9677 14.9531H26.4613M21.4579 6.77906L23.2267 5.0102M13.999 2V4.01632M4.80797 5.00884L6.5646 6.77906M4.03027 14.9531H1.53809M21.1397 15.7498C20.7536 18.9653 18.6475 20.2502 17.7379 21.1829C16.827 22.1183 16.9902 22.3046 17.0513 23.6764C17.0616 23.8461 17.0369 24.0162 16.9789 24.176C16.9209 24.3358 16.8308 24.4821 16.7141 24.6058C16.5974 24.7295 16.4566 24.828 16.3005 24.8952C16.1443 24.9624 15.976 24.9969 15.8059 24.9966H12.1921C12.0221 24.9963 11.8541 24.9614 11.6981 24.894C11.5421 24.8266 11.4015 24.7281 11.2848 24.6046C11.1681 24.481 11.0779 24.335 11.0195 24.1755C10.9611 24.0159 10.9359 23.8461 10.9453 23.6764C10.9453 22.3304 11.0704 22.0177 10.26 21.1829C9.22673 20.1496 6.79573 18.6907 6.79573 14.6785C6.78953 13.6818 6.98984 12.6948 7.38406 11.7794C7.77827 10.8641 8.35783 10.0403 9.08621 9.36009C9.81459 8.67986 10.676 8.15789 11.6161 7.82709C12.5562 7.49629 13.5547 7.36383 14.5485 7.43806C15.5424 7.51229 16.5101 7.79161 17.3906 8.2584C18.2712 8.72519 19.0455 9.36933 19.6647 10.1502C20.284 10.9311 20.7347 11.8318 20.9886 12.7956C21.2424 13.7593 21.2939 14.7652 21.1397 15.7498Z" stroke="#F0EDE6" stroke-width="2.03943" stroke-linecap="round" stroke-linejoin="round"/>
</svg>
