<svg width="21" height="20" viewBox="0 0 21 20" fill="none" xmlns="http://www.w3.org/2000/svg">
<path d="M10.5 0C4.98597 0 0.5 4.48597 0.5 10C0.5 15.5139 4.98597 20 10.5 20C16.0139 20 20.5 15.5139 20.5 10C20.5 4.48597 16.0139 0 10.5 0ZM18.6681 13.678C18.6073 13.685 18.5464 13.7021 18.4891 13.7322C18.466 13.7444 17.7541 14.1077 16.5548 14.5031C16.8827 13.1128 17.0262 11.7755 17.0491 10.5195H19.4449C19.3803 11.6396 19.1085 12.7044 18.6681 13.678ZM14.1478 18.1818C13.1836 18.6134 12.1305 18.8803 11.0235 18.9448V16.5731C12.5165 16.522 13.8677 16.3078 15.0161 16.0382C14.7893 16.6919 14.5209 17.3519 14.1952 18.015C14.1688 18.0692 14.1547 18.1256 14.1478 18.1818ZM6.77174 18.0027C6.75983 17.9794 6.39923 17.273 6.00545 16.082C7.39326 16.4103 8.73018 16.5577 9.98449 16.5813V18.9453C8.86345 18.8814 7.79799 18.6095 6.82366 18.1691C6.81536 18.1123 6.79978 18.0561 6.77174 18.0027ZM2.33198 13.6785C1.89166 12.7049 1.61947 11.6396 1.55531 10.5195H3.93089C3.981 12.0273 4.19813 13.3885 4.47069 14.5447C3.81867 14.3182 3.1608 14.0506 2.49895 13.7259C2.44467 13.6992 2.38858 13.6851 2.33198 13.6785ZM2.31479 6.35944C2.38168 6.35402 2.44833 6.33511 2.51151 6.3021C2.53437 6.28977 3.23432 5.93293 4.41474 5.54128C4.09198 6.91505 3.94911 8.23736 3.92473 9.48027H1.55508C1.61872 8.37481 1.88471 7.32283 2.31479 6.35944ZM6.82802 1.82906C7.801 1.39013 8.86521 1.11872 9.98449 1.05503V3.46158C8.47314 3.51266 7.10906 3.73146 5.952 4.00518C6.18007 3.3462 6.44995 2.68111 6.77814 2.01249C6.80734 1.95325 6.82259 1.89095 6.82802 1.82906ZM14.2019 2.02491C14.2138 2.048 14.5742 2.7543 14.9678 3.94469C13.5919 3.62178 12.268 3.47924 11.0235 3.45523V1.05554C12.1289 1.1197 13.1806 1.38591 14.1439 1.81664C14.1486 1.88728 14.1668 1.95821 14.2019 2.02491ZM11.0235 4.51944C12.3726 4.5429 13.8188 4.71529 15.3148 5.11477C15.6322 6.31429 15.9091 7.80362 15.9738 9.4805H11.0235V4.51944ZM9.98449 4.52936V9.4805H4.9894C5.01351 8.13246 5.18646 6.68754 5.58622 5.19274C6.79255 4.87266 8.29352 4.59324 9.98449 4.52936ZM4.99891 10.5195H9.98449V15.5144C8.62486 15.4915 7.16705 15.318 5.65839 14.9124C5.33947 13.7064 5.06158 12.2075 4.99891 10.5195ZM11.0235 15.5043V10.5195H15.9845C15.9622 11.8801 15.7886 13.3391 15.3836 14.8493C14.1842 15.1659 12.6972 15.4409 11.0235 15.5043ZM17.0422 9.4805C16.9905 7.98232 16.7734 6.6296 16.5024 5.48C17.1634 5.70853 17.8311 5.9792 18.5023 6.30859C18.5611 6.33738 18.6225 6.35096 18.6841 6.35666C19.1151 7.32107 19.3814 8.37383 19.4453 9.4805H17.0422ZM17.8463 4.87762C17.2868 4.64566 16.7319 4.44704 16.1829 4.27789C15.9886 3.62966 15.7906 3.08342 15.6175 2.64996C16.4849 3.25586 17.24 4.01061 17.8463 4.87762ZM5.34263 2.6787C5.11363 3.23268 4.91663 3.78208 4.74905 4.32568C4.11534 4.51615 3.5792 4.71005 3.15177 4.88054C3.74877 4.02595 4.491 3.28024 5.34263 2.6787ZM3.19251 15.177C3.73013 15.3985 4.26367 15.5894 4.79147 15.7528C4.97531 16.3673 5.16342 16.8908 5.32992 17.3123C4.50296 16.7258 3.77973 16.0034 3.19251 15.177ZM15.6355 17.3366C15.8602 16.7923 16.0539 16.2525 16.2194 15.7184C16.8479 15.5303 17.385 15.3379 17.8136 15.1685C17.2173 16.0101 16.4801 16.7441 15.6355 17.3366Z" fill="#F0EDE6"/>
</svg>
